<?xml version="1.0" encoding="UTF-8"?>
<svg width="452" height="90" viewBox="0 0 452 90" version="1.1" xmlns="http://www.w3.org/2000/svg">
  <defs>
    <style>
      .icon-color { fill: #828dff; }
      .text-color { fill: #192a6e; }
    </style>
  </defs>
  <title>EasyClinic Logo</title>
  <g id="logo" fill="none" fill-rule="evenodd">
    <g id="icon">
      <path d="M45,7.5 C65.688,7.5 82.5,24.312 82.5,45 C82.5,65.688 65.688,82.5 45,82.5 C24.312,82.5 7.5,65.688 7.5,45 C7.5,24.312 24.312,7.5 45,7.5 Z M45,0 C20.147,0 0,20.147 0,45 C0,69.853 20.147,90 45,90 C69.853,90 90,69.853 90,45 C90,20.147 69.853,0 45,0 Z M52.5,37.5 L82.5,37.5 L82.5,52.5 L52.5,52.5 L52.5,82.5 L37.5,82.5 L37.5,52.5 L7.5,52.5 L7.5,37.5 L37.5,37.5 L37.5,7.5 L52.5,7.5 L52.5,37.5 Z" class="icon-color" />
      <rect class="text-color" x="37.5" y="0" width="15" height="15"></rect>
    </g>
    <text id="EasyClinic-Text" font-family="-apple-system, BlinkMacSystemFont, 'Segoe UI', 'Roboto', 'Helvetica Neue', Arial, sans-serif" font-size="64" font-weight="bold" letter-spacing="0.5" class="text-color">
      <tspan x="115" y="68">EasyClinic</tspan>
    </text>
  </g>
</svg>
